<svg width="50" height="41" viewBox="0 0 50 41" fill="none" xmlns="http://www.w3.org/2000/svg">
<path d="M31.994 1.04175C31.5015 1.92391 31.0625 2.83495 30.6795 3.76992C26.9166 3.17481 23.0834 3.17481 19.3204 3.76992C18.9375 2.83495 18.4985 1.92391 18.0059 1.04175C14.4613 1.64741 11.0154 2.73207 7.76288 4.26595C1.94676 12.6595 -0.690895 22.8497 0.322405 33.011C4.11268 35.8603 8.3667 38.0335 12.8968 39.4346C13.9283 38.072 14.849 36.6289 15.6498 35.1191C14.1718 34.5742 12.7512 33.8847 11.4087 33.0606C11.7769 32.8156 12.1252 32.5419 12.4504 32.2421C16.3652 34.1278 20.6547 35.1071 25 35.1071C29.3453 35.1071 33.6348 34.1278 37.5496 32.2421C37.8968 32.5398 38.244 32.8126 38.5913 33.0606C37.2414 33.8782 35.8223 34.5753 34.3502 35.1439C35.1178 36.6879 36.0138 38.1647 37.0288 39.5586C41.5532 38.1623 45.7999 35.9886 49.5784 33.135C50.616 22.9718 47.9762 12.7734 42.1379 4.38996C38.9219 2.82433 35.5101 1.69817 31.994 1.04175ZM16.7659 27.2074C15.5247 27.1183 14.3664 26.5519 13.534 25.627C12.7016 24.7021 12.2599 23.4907 12.3016 22.2471C12.2536 21.0019 12.6932 19.787 13.5268 18.8607C14.3604 17.9345 15.5225 17.3698 16.7659 17.2868C18.0093 17.3698 19.1713 17.9345 20.0049 18.8607C20.8386 19.787 21.2781 21.0019 21.2301 22.2471C21.2781 23.4924 20.8386 24.7072 20.0049 25.6335C19.1713 26.5598 18.0093 27.1244 16.7659 27.2074ZM33.2341 27.2074C31.993 27.1183 30.8347 26.5519 30.0023 25.627C29.1699 24.7021 28.7281 23.4907 28.7698 22.2471C28.7219 21.0019 29.1614 19.787 29.9951 18.8607C30.8287 17.9345 31.9907 17.3698 33.2341 17.2868C34.4798 17.3636 35.6456 17.9264 36.4805 18.8541C37.3154 19.7818 37.7528 21.0002 37.6984 22.2471C37.7528 23.494 37.3154 24.7124 36.4805 25.6401C35.6456 26.5678 34.4798 27.1306 33.2341 27.2074Z" fill="#B629F2"/>
</svg>
