<svg width="45" height="48" viewBox="0 0 45 48" fill="none" xmlns="http://www.w3.org/2000/svg">
<path d="M44.1461 15.352L23.5797 1.19185C22.8777 0.745712 22.1285 0.741627 21.4201 1.19185L0.853768 15.352C0.326425 15.715 0 16.3635 0 17.0118V31.1719C0 31.8203 0.326425 32.4686 0.853856 32.8317L21.4202 46.9939C22.1222 47.44 22.8714 47.4441 23.5798 46.9939L44.1461 32.8317C44.6735 32.4687 45 31.8203 45 31.1719V17.0118C44.9999 16.3635 44.6735 15.715 44.1461 15.352ZM24.4335 6.58607L39.5758 17.0118L32.8208 21.68L24.4335 15.8966V6.58607ZM20.5664 6.58607V15.8966L12.1791 21.68L5.42407 17.0118L20.5664 6.58607ZM3.86718 20.7464L8.71372 24.0919L3.86718 27.4374V20.7464ZM20.5664 41.5977L5.42407 31.172L12.1791 26.5037L20.5664 32.2872V41.5977ZM22.5 28.8119L15.6695 24.0919L22.5 19.3718L29.3304 24.0919L22.5 28.8119ZM24.4335 41.5977V32.2872L32.8208 26.5037L39.5758 31.172L24.4335 41.5977ZM41.1327 27.4374L36.2862 24.0919L41.1327 20.7464V27.4374Z" fill="#B629F2"/>
</svg>
