<svg width="50" height="50" viewBox="0 0 50 50" fill="none" xmlns="http://www.w3.org/2000/svg">
<g clip-path="url(#clip0_14_554)">
<path d="M47.2222 0H2.77778C2.04107 0 1.33453 0.292658 0.813592 0.813592C0.292658 1.33453 0 2.04107 0 2.77778V47.2222C0 47.9589 0.292658 48.6655 0.813592 49.1864C1.33453 49.7073 2.04107 50 2.77778 50H47.2222C47.9589 50 48.6655 49.7073 49.1864 49.1864C49.7073 48.6655 50 47.9589 50 47.2222V2.77778C50 2.04107 49.7073 1.33453 49.1864 0.813592C48.6655 0.292658 47.9589 0 47.2222 0ZM14.8306 42.6028H7.40833V18.7417H14.8306V42.6028ZM11.1194 15.4833C9.97901 15.4833 8.88529 15.0303 8.07889 14.2239C7.27248 13.4175 6.81944 12.3238 6.81944 11.1833C6.81944 10.0429 7.27248 8.94918 8.07889 8.14277C8.88529 7.33637 9.97901 6.88333 11.1194 6.88333C12.2599 6.88333 13.3536 7.33637 14.16 8.14277C14.9664 8.94918 15.4194 10.0429 15.4194 11.1833C15.4194 12.3238 14.9664 13.4175 14.16 14.2239C13.3536 15.0303 12.2599 15.4833 11.1194 15.4833ZM42.6056 42.6028H35.1917V31C35.1917 28.2333 35.1417 24.675 31.3361 24.675C27.475 24.675 26.8889 27.6917 26.8889 30.8056V42.6056H19.4806V18.7444H26.5917V22.0056H26.6944C27.6806 20.1306 30.1028 18.1528 33.7056 18.1528C41.2167 18.1528 42.6028 23.0917 42.6028 29.5194L42.6056 42.6028Z" fill="#B629F2"/>
</g>
<defs>
<clipPath id="clip0_14_554">
<rect width="50" height="50" fill="white"/>
</clipPath>
</defs>
</svg>
