<svg width="51" height="52" viewBox="0 0 51 52" fill="none" xmlns="http://www.w3.org/2000/svg">
<g clip-path="url(#clip0_14_477)">
<path d="M15.7549 43.2962C18.9913 43.2962 21.7899 42.1424 24.0637 39.8686C26.4501 37.4822 27.6911 33.8039 27.3596 30.3189L45.5581 12.1204C46.8004 10.8755 47.4977 9.18833 47.4969 7.42961C47.4962 5.67088 46.7973 3.98438 45.5538 2.74061C43.0506 0.23311 38.6816 0.23311 36.1783 2.74061L17.2998 21.6191C13.2347 21.9782 9.20995 24.8512 9.20995 29.947C9.20995 30.5909 9.25457 31.1965 9.2992 31.7745C9.4692 33.9654 9.53082 34.7877 6.17332 36.4665C5.84354 36.6319 5.56247 36.8803 5.35769 37.1872C5.15292 37.4941 5.0315 37.849 5.00535 38.217C4.9792 38.585 5.04922 38.9535 5.20854 39.2863C5.36786 39.6191 5.611 39.9047 5.91407 40.1151C6.10532 40.2426 10.5742 43.2962 15.7549 43.2962C15.7528 43.2962 15.7528 43.2962 15.7549 43.2962ZM39.1831 5.74324C39.6365 5.30826 40.2407 5.06574 40.8691 5.06653C41.4974 5.06733 42.101 5.31137 42.5533 5.74749C42.7744 5.96849 42.9497 6.23087 43.0693 6.51964C43.1889 6.80841 43.2505 7.11792 43.2505 7.43049C43.2505 7.74305 43.1889 8.05256 43.0693 8.34133C42.9497 8.6301 42.7744 8.89248 42.5533 9.11349L26.2503 25.4165L22.8801 22.0462L39.1831 5.74324ZM13.5386 31.4451C13.5003 30.9691 13.4599 30.4719 13.4599 29.9449C13.4599 26.6617 16.5306 25.7947 18.1562 25.7947C18.9127 25.7947 19.6416 25.9499 20.2047 26.2325C22.2128 27.2419 22.8822 28.9801 23.0883 30.2615C23.4644 32.5777 22.6272 35.2935 21.0568 36.8639C19.5884 38.3322 17.8544 39.0462 15.7549 39.0462C14.1612 39.0462 12.6099 38.6297 11.3456 38.1389C13.6448 36.0712 13.7277 33.9122 13.5386 31.4451Z" fill="#B629F2"/>
</g>
<defs>
<clipPath id="clip0_14_477">
<rect width="51" height="51" fill="white" transform="translate(0 0.859985)"/>
</clipPath>
</defs>
</svg>
