<svg width="50" height="50" viewBox="0 0 50 50" fill="none" xmlns="http://www.w3.org/2000/svg">
<path d="M12.9042 30.5084C12.9042 32.925 10.9396 34.898 8.52292 34.898C7.36032 34.8946 6.24638 34.4309 5.42488 33.6082C4.60338 32.7856 4.14124 31.671 4.13959 30.5084C4.14179 29.3461 4.60417 28.2321 5.42561 27.4098C6.24705 26.5876 7.36068 26.1242 8.52292 26.1209H12.9042V30.5084ZM15.1146 30.5084C15.1146 28.0917 17.0813 26.1209 19.4979 26.1209C20.6598 26.1247 21.7729 26.5884 22.5939 27.4106C23.4149 28.2327 23.877 29.3465 23.8792 30.5084V41.4959C23.877 42.6577 23.4149 43.7715 22.5939 44.5937C21.7729 45.4158 20.6598 45.8795 19.4979 45.8834C18.3353 45.8812 17.2211 45.4181 16.3994 44.5956C15.5777 43.7732 15.1157 42.6584 15.1146 41.4959V30.5084ZM19.4979 12.8938C17.0813 12.8938 15.1146 10.9188 15.1146 8.5042C15.1146 6.08962 17.0813 4.1167 19.4979 4.1167C20.6598 4.12055 21.7729 4.58424 22.5939 5.4064C23.4149 6.22856 23.877 7.34232 23.8792 8.5042V12.8938H19.4979ZM19.4979 15.1021C20.6602 15.106 21.7736 15.5699 22.5946 16.3926C23.4157 17.2152 23.8775 18.3295 23.8792 19.4917C23.877 20.6536 23.4149 21.7673 22.5939 22.5895C21.7729 23.4117 20.6598 23.8753 19.4979 23.8792H8.525C7.36277 23.8759 6.24914 23.4125 5.4277 22.5902C4.60626 21.768 4.14387 20.6539 4.14167 19.4917C4.14332 18.3291 4.60546 17.2145 5.42696 16.3918C6.24846 15.5692 7.36241 15.1054 8.525 15.1021H19.4979ZM37.0958 19.4917C37.0958 17.075 39.0604 15.1021 41.4771 15.1021C42.6397 15.1054 43.7536 15.5692 44.5751 16.3918C45.3966 17.2145 45.8588 18.3291 45.8604 19.4917C45.8582 20.6539 45.3958 21.768 44.5744 22.5902C43.753 23.4125 42.6393 23.8759 41.4771 23.8792H37.0958V19.4917ZM34.8854 19.4917C34.8854 21.9084 32.9188 23.8792 30.5021 23.8792C29.3402 23.8753 28.2271 23.4117 27.4061 22.5895C26.5851 21.7673 26.123 20.6536 26.1208 19.4917V8.5042C26.123 7.34232 26.5851 6.22856 27.4061 5.4064C28.2271 4.58424 29.3402 4.12055 30.5021 4.1167C32.9188 4.1167 34.8854 6.08753 34.8854 8.5042V19.4917ZM30.5021 37.1063C32.9188 37.1063 34.8854 39.0813 34.8854 41.4959C34.8854 43.9104 32.9188 45.8834 30.5021 45.8834C29.3402 45.8795 28.2271 45.4158 27.4061 44.5937C26.5851 43.7715 26.123 42.6577 26.1208 41.4959V37.1063H30.5021ZM30.5021 34.898C29.3399 34.8941 28.2264 34.4301 27.4054 33.6075C26.5843 32.7849 26.1225 31.6706 26.1208 30.5084C26.123 29.3465 26.5851 28.2327 27.4061 27.4106C28.2271 26.5884 29.3402 26.1247 30.5021 26.1209H41.4771C42.6393 26.1242 43.753 26.5876 44.5744 27.4098C45.3958 28.2321 45.8582 29.3461 45.8604 30.5084C45.8588 31.671 45.3966 32.7856 44.5751 33.6082C43.7536 34.4309 42.6397 34.8946 41.4771 34.898H30.5021Z" fill="#B629F2"/>
</svg>
