<svg width="188" height="27" viewBox="0 0 188 27" fill="none" xmlns="http://www.w3.org/2000/svg">
<path d="M12.86 26.432C10.316 26.432 8.132 25.892 6.308 24.812C4.484 23.708 3.08 22.184 2.096 20.24C1.112 18.272 0.62 16.004 0.62 13.436C0.62 10.868 1.112 8.6 2.096 6.632C3.08 4.664 4.484 3.128 6.308 2.024C8.132 0.92 10.316 0.368 12.86 0.368C15.884 0.368 18.356 1.124 20.276 2.636C22.22 4.124 23.432 6.224 23.912 8.936H18.836C18.524 7.568 17.852 6.5 16.82 5.732C15.812 4.94 14.468 4.544 12.788 4.544C10.46 4.544 8.636 5.336 7.316 6.92C5.996 8.504 5.336 10.676 5.336 13.436C5.336 16.196 5.996 18.368 7.316 19.952C8.636 21.512 10.46 22.292 12.788 22.292C14.468 22.292 15.812 21.932 16.82 21.212C17.852 20.468 18.524 19.448 18.836 18.152H23.912C23.432 20.744 22.22 22.772 20.276 24.236C18.356 25.7 15.884 26.432 12.86 26.432ZM34.039 26.432C32.503 26.432 31.243 26.192 30.259 25.712C29.275 25.208 28.543 24.548 28.063 23.732C27.583 22.916 27.343 22.016 27.343 21.032C27.343 19.376 27.991 18.032 29.287 17C30.583 15.968 32.527 15.452 35.119 15.452H39.655V15.02C39.655 13.796 39.307 12.896 38.611 12.32C37.915 11.744 37.051 11.456 36.019 11.456C35.083 11.456 34.267 11.684 33.571 12.14C32.875 12.572 32.443 13.22 32.275 14.084H27.775C27.895 12.788 28.327 11.66 29.071 10.7C29.839 9.74 30.823 9.008 32.023 8.504C33.223 7.976 34.567 7.712 36.055 7.712C38.599 7.712 40.603 8.348 42.067 9.62C43.531 10.892 44.263 12.692 44.263 15.02V26H40.339L39.907 23.12C39.379 24.08 38.635 24.872 37.675 25.496C36.739 26.12 35.527 26.432 34.039 26.432ZM35.083 22.832C36.403 22.832 37.423 22.4 38.143 21.536C38.887 20.672 39.355 19.604 39.547 18.332H35.623C34.399 18.332 33.523 18.56 32.995 19.016C32.467 19.448 32.203 19.988 32.203 20.636C32.203 21.332 32.467 21.872 32.995 22.256C33.523 22.64 34.219 22.832 35.083 22.832ZM48.6603 26V8.144H52.7283L53.0883 11.168C53.6403 10.112 54.4323 9.272 55.4643 8.648C56.5203 8.024 57.7563 7.712 59.1723 7.712C61.3803 7.712 63.0963 8.408 64.3203 9.8C65.5443 11.192 66.1563 13.232 66.1563 15.92V26H61.5483V16.352C61.5483 14.816 61.2363 13.64 60.6123 12.824C59.9883 12.008 59.0163 11.6 57.6963 11.6C56.4003 11.6 55.3323 12.056 54.4923 12.968C53.6763 13.88 53.2683 15.152 53.2683 16.784V26H48.6603ZM78.7707 26.432C77.0907 26.432 75.5907 26.024 74.2707 25.208C72.9507 24.392 71.9067 23.276 71.1387 21.86C70.3707 20.444 69.9867 18.836 69.9867 17.036C69.9867 15.236 70.3707 13.64 71.1387 12.248C71.9067 10.832 72.9507 9.728 74.2707 8.936C75.5907 8.12 77.0907 7.712 78.7707 7.712C80.1147 7.712 81.2907 7.964 82.2987 8.468C83.3067 8.972 84.1227 9.68 84.7467 10.592V0.079999H89.3547V26H85.2507L84.7467 23.444C84.1707 24.236 83.4027 24.932 82.4427 25.532C81.5067 26.132 80.2827 26.432 78.7707 26.432ZM79.7427 22.4C81.2307 22.4 82.4427 21.908 83.3787 20.924C84.3387 19.916 84.8187 18.632 84.8187 17.072C84.8187 15.512 84.3387 14.24 83.3787 13.256C82.4427 12.248 81.2307 11.744 79.7427 11.744C78.2787 11.744 77.0667 12.236 76.1067 13.22C75.1467 14.204 74.6667 15.476 74.6667 17.036C74.6667 18.596 75.1467 19.88 76.1067 20.888C77.0667 21.896 78.2787 22.4 79.7427 22.4ZM102.723 26.432C100.923 26.432 99.327 26.048 97.935 25.28C96.543 24.512 95.451 23.432 94.659 22.04C93.867 20.648 93.471 19.04 93.471 17.216C93.471 15.368 93.855 13.724 94.623 12.284C95.415 10.844 96.495 9.728 97.863 8.936C99.255 8.12 100.887 7.712 102.759 7.712C104.511 7.712 106.059 8.096 107.403 8.864C108.747 9.632 109.791 10.688 110.535 12.032C111.303 13.352 111.687 14.828 111.687 16.46C111.687 16.724 111.675 17 111.651 17.288C111.651 17.576 111.639 17.876 111.615 18.188H98.043C98.139 19.58 98.619 20.672 99.483 21.464C100.371 22.256 101.439 22.652 102.687 22.652C103.623 22.652 104.403 22.448 105.027 22.04C105.675 21.608 106.155 21.056 106.467 20.384H111.147C110.811 21.512 110.247 22.544 109.455 23.48C108.687 24.392 107.727 25.112 106.575 25.64C105.447 26.168 104.163 26.432 102.723 26.432ZM102.759 11.456C101.631 11.456 100.635 11.78 99.771 12.428C98.907 13.052 98.355 14.012 98.115 15.308H107.007C106.935 14.132 106.503 13.196 105.711 12.5C104.919 11.804 103.935 11.456 102.759 11.456ZM124.249 26V0.799998H132.853C135.805 0.799998 138.229 1.328 140.125 2.384C142.045 3.416 143.461 4.88 144.373 6.776C145.309 8.648 145.777 10.856 145.777 13.4C145.777 15.944 145.309 18.164 144.373 20.06C143.461 21.932 142.045 23.396 140.125 24.452C138.229 25.484 135.805 26 132.853 26H124.249ZM128.857 22.04H132.637C134.749 22.04 136.417 21.704 137.641 21.032C138.865 20.336 139.741 19.352 140.269 18.08C140.797 16.784 141.061 15.224 141.061 13.4C141.061 11.6 140.797 10.052 140.269 8.756C139.741 7.46 138.865 6.464 137.641 5.768C136.417 5.072 134.749 4.724 132.637 4.724H128.857V22.04ZM158.411 26.432C156.611 26.432 155.015 26.048 153.623 25.28C152.231 24.512 151.139 23.432 150.347 22.04C149.555 20.648 149.159 19.04 149.159 17.216C149.159 15.368 149.543 13.724 150.311 12.284C151.103 10.844 152.183 9.728 153.551 8.936C154.943 8.12 156.575 7.712 158.447 7.712C160.199 7.712 161.747 8.096 163.091 8.864C164.435 9.632 165.479 10.688 166.223 12.032C166.991 13.352 167.375 14.828 167.375 16.46C167.375 16.724 167.363 17 167.339 17.288C167.339 17.576 167.327 17.876 167.303 18.188H153.731C153.827 19.58 154.307 20.672 155.171 21.464C156.059 22.256 157.127 22.652 158.375 22.652C159.311 22.652 160.091 22.448 160.715 22.04C161.363 21.608 161.843 21.056 162.155 20.384H166.835C166.499 21.512 165.935 22.544 165.143 23.48C164.375 24.392 163.415 25.112 162.263 25.64C161.135 26.168 159.851 26.432 158.411 26.432ZM158.447 11.456C157.319 11.456 156.323 11.78 155.459 12.428C154.595 13.052 154.043 14.012 153.803 15.308H162.695C162.623 14.132 162.191 13.196 161.399 12.5C160.607 11.804 159.623 11.456 158.447 11.456ZM175.371 26L168.819 8.144H173.643L178.179 21.644L182.715 8.144H187.539L180.951 26H175.371Z" fill="white"/>
</svg>
