<svg width="127" height="23" viewBox="0 0 127 23" fill="none" xmlns="http://www.w3.org/2000/svg">
<path d="M10.55 22.36C8.43 22.36 6.61 21.91 5.09 21.01C3.57 20.09 2.4 18.82 1.58 17.2C0.76 15.56 0.35 13.67 0.35 11.53C0.35 9.39 0.76 7.5 1.58 5.86C2.4 4.22 3.57 2.94 5.09 2.02C6.61 1.1 8.43 0.64 10.55 0.64C13.07 0.64 15.13 1.27 16.73 2.53C18.35 3.77 19.36 5.52 19.76 7.78H15.53C15.27 6.64 14.71 5.75 13.85 5.11C13.01 4.45 11.89 4.12 10.49 4.12C8.55 4.12 7.03 4.78 5.93 6.1C4.83 7.42 4.28 9.23 4.28 11.53C4.28 13.83 4.83 15.64 5.93 16.96C7.03 18.26 8.55 18.91 10.49 18.91C11.89 18.91 13.01 18.61 13.85 18.01C14.71 17.39 15.27 16.54 15.53 15.46H19.76C19.36 17.62 18.35 19.31 16.73 20.53C15.13 21.75 13.07 22.36 10.55 22.36ZM28.1991 22.36C26.9191 22.36 25.8691 22.16 25.0491 21.76C24.2291 21.34 23.6191 20.79 23.2191 20.11C22.8191 19.43 22.6191 18.68 22.6191 17.86C22.6191 16.48 23.1591 15.36 24.2391 14.5C25.3191 13.64 26.9391 13.21 29.0991 13.21H32.8791V12.85C32.8791 11.83 32.5891 11.08 32.0091 10.6C31.4291 10.12 30.7091 9.88 29.8491 9.88C29.0691 9.88 28.3891 10.07 27.8091 10.45C27.2291 10.81 26.8691 11.35 26.7291 12.07H22.9791C23.0791 10.99 23.4391 10.05 24.0591 9.25C24.6991 8.45 25.5191 7.84 26.5191 7.42C27.5191 6.98 28.6391 6.76 29.8791 6.76C31.9991 6.76 33.6691 7.29 34.8891 8.35C36.1091 9.41 36.7191 10.91 36.7191 12.85V22H33.4491L33.0891 19.6C32.6491 20.4 32.0291 21.06 31.2291 21.58C30.4491 22.1 29.4391 22.36 28.1991 22.36ZM29.0691 19.36C30.1691 19.36 31.0191 19 31.6191 18.28C32.2391 17.56 32.6291 16.67 32.7891 15.61H29.5191C28.4991 15.61 27.7691 15.8 27.3291 16.18C26.8891 16.54 26.6691 16.99 26.6691 17.53C26.6691 18.11 26.8891 18.56 27.3291 18.88C27.7691 19.2 28.3491 19.36 29.0691 19.36ZM40.3836 22V7.12H43.7736L44.0736 9.64C44.5336 8.76 45.1936 8.06 46.0536 7.54C46.9336 7.02 47.9636 6.76 49.1436 6.76C50.9836 6.76 52.4136 7.34 53.4336 8.5C54.4536 9.66 54.9636 11.36 54.9636 13.6V22H51.1236V13.96C51.1236 12.68 50.8636 11.7 50.3436 11.02C49.8236 10.34 49.0136 10 47.9136 10C46.8336 10 45.9436 10.38 45.2436 11.14C44.5636 11.9 44.2236 12.96 44.2236 14.32V22H40.3836ZM65.4755 22.36C64.0755 22.36 62.8255 22.02 61.7255 21.34C60.6255 20.66 59.7555 19.73 59.1155 18.55C58.4755 17.37 58.1555 16.03 58.1555 14.53C58.1555 13.03 58.4755 11.7 59.1155 10.54C59.7555 9.36 60.6255 8.44 61.7255 7.78C62.8255 7.1 64.0755 6.76 65.4755 6.76C66.5955 6.76 67.5755 6.97 68.4155 7.39C69.2555 7.81 69.9355 8.4 70.4555 9.16V0.399999H74.2955V22H70.8755L70.4555 19.87C69.9755 20.53 69.3355 21.11 68.5355 21.61C67.7555 22.11 66.7355 22.36 65.4755 22.36ZM66.2855 19C67.5255 19 68.5355 18.59 69.3155 17.77C70.1155 16.93 70.5155 15.86 70.5155 14.56C70.5155 13.26 70.1155 12.2 69.3155 11.38C68.5355 10.54 67.5255 10.12 66.2855 10.12C65.0655 10.12 64.0555 10.53 63.2555 11.35C62.4555 12.17 62.0555 13.23 62.0555 14.53C62.0555 15.83 62.4555 16.9 63.2555 17.74C64.0555 18.58 65.0655 19 66.2855 19ZM85.4359 22.36C83.9359 22.36 82.6059 22.04 81.4459 21.4C80.2859 20.76 79.3759 19.86 78.7159 18.7C78.0559 17.54 77.7259 16.2 77.7259 14.68C77.7259 13.14 78.0459 11.77 78.6859 10.57C79.3459 9.37 80.2459 8.44 81.3859 7.78C82.5459 7.1 83.9059 6.76 85.4659 6.76C86.9259 6.76 88.2159 7.08 89.3359 7.72C90.4559 8.36 91.3259 9.24 91.9459 10.36C92.5859 11.46 92.9059 12.69 92.9059 14.05C92.9059 14.27 92.8959 14.5 92.8759 14.74C92.8759 14.98 92.8659 15.23 92.8459 15.49H81.5359C81.6159 16.65 82.0159 17.56 82.7359 18.22C83.4759 18.88 84.3659 19.21 85.4059 19.21C86.1859 19.21 86.8359 19.04 87.3559 18.7C87.8959 18.34 88.2959 17.88 88.5559 17.32H92.4559C92.1759 18.26 91.7059 19.12 91.0459 19.9C90.4059 20.66 89.6059 21.26 88.6459 21.7C87.7059 22.14 86.6359 22.36 85.4359 22.36ZM85.4659 9.88C84.5259 9.88 83.6959 10.15 82.9759 10.69C82.2559 11.21 81.7959 12.01 81.5959 13.09H89.0059C88.9459 12.11 88.5859 11.33 87.9259 10.75C87.2659 10.17 86.4459 9.88 85.4659 9.88ZM103.374 22V0.999999H107.214V22H103.374ZM116.174 22V4.09H110.054V0.999999H126.164V4.09H120.014V22H116.174Z" fill="white"/>
</svg>
